<?xml version="1.0" encoding="utf-8"?>
<!-- Generator: Adobe Illustrator 17.1.0, SVG Export Plug-In . SVG Version: 6.00 Build 0)  -->
<!DOCTYPE svg PUBLIC "-//W3C//DTD SVG 1.1 Basic//EN" "http://www.w3.org/Graphics/SVG/1.1/DTD/svg11-basic.dtd">
<svg version="1.1" baseProfile="basic" id="Arrow_1_"
	 xmlns="http://www.w3.org/2000/svg" xmlns:xlink="http://www.w3.org/1999/xlink" x="0px" y="0px" width="500px" height="500px"
	 viewBox="0 0 500 500" xml:space="preserve">
<path fill="#fff" d="M353.6,60.7C314.4,21.5,262.4,0,207.1,0S99.7,21.5,60.6,60.7c-80.8,80.8-80.8,212.2,0,292.9
	c39.1,39.1,91.2,60.7,146.5,60.7c47.2,0,91.9-15.8,128.3-44.6l123.2,123.3c4.7,4.7,10.9,7.1,17.1,7.1s12.4-2.4,17.1-7.1
	c9.5-9.5,9.5-24.8,0-34.3L369.6,335.4C433.8,254.2,428.5,135.6,353.6,60.7z M94.8,319.4C33,257.5,33,156.8,94.9,94.9
	c30-30,69.8-46.5,112.2-46.5s82.3,16.5,112.2,46.5c61.9,61.9,61.9,162.6,0,224.4c-30,30-69.8,46.5-112.2,46.5
	S124.8,349.3,94.8,319.4z"/>
</svg>
