<?xml version="1.0" encoding="utf-8"?>
<!-- Generator: Adobe Illustrator 18.1.1, SVG Export Plug-In . SVG Version: 6.00 Build 0)  -->
<svg version="1.1" id="Ebene_1" xmlns="http://www.w3.org/2000/svg" xmlns:xlink="http://www.w3.org/1999/xlink" x="0px" y="0px"
	 viewBox="0 0 300 300" enable-background="new 0 0 300 300" xml:space="preserve">
<g>
	<g>
		<linearGradient id="SVGID_1_" gradientUnits="userSpaceOnUse" x1="2" y1="150" x2="298" y2="150">
			<stop  offset="0" style="stop-color:#CE4534"/>
			<stop  offset="0.2733" style="stop-color:#D83C31"/>
			<stop  offset="0.6249" style="stop-color:#E0342E"/>
			<stop  offset="1" style="stop-color:#E3312D"/>
		</linearGradient>
		<path fill="url(#SVGID_1_)" d="M150,298C68.4,298,2,231.6,2,150S68.4,2,150,2s148,66.4,148,148S231.6,298,150,298z"/>
		<path fill="#E84C3C" d="M150,4c39,0,75.7,15.2,103.2,42.8C280.8,74.3,296,111,296,150s-15.2,75.7-42.8,103.2
			C225.7,280.8,189,296,150,296s-75.7-15.2-103.2-42.8C19.2,225.7,4,189,4,150S19.2,74.3,46.8,46.8C74.3,19.2,111,4,150,4 M150,0
			C67.2,0,0,67.2,0,150s67.2,150,150,150s150-67.2,150-150S232.8,0,150,0L150,0z"/>
	</g>
	<g>
		<path fill="#FFFFFF" d="M97.4,104.8c0,2.2-0.3,4.2-0.9,5.9c-0.6,1.8-1.4,3.3-2.4,4.6c-1,1.3-2.2,2.3-3.7,3
			c-1.5,0.7-3.1,1.1-4.8,1.1c-2,0-3.8-0.4-5.3-1.2c-1.6-0.8-3-2-4.1-3.6c1.9-1.4,3.5-3.3,4.6-5.6c1.2-2.4,1.7-4.9,1.7-7.5
			c0-3.3-1-6-3-7.9c-2-1.9-4.7-2.9-8.1-2.9c-2.1,0-4,0.4-5.7,1.2c-1.7,0.8-3.2,1.9-4.5,3.3c-1.2,1.4-2.2,3-2.9,5c-0.7,1.9-1,4-1,6.3
			c0,3.4,0.8,6.7,2.5,9.7c1.7,3,3.8,6,6.3,8.9c2.5,2.9,5.3,5.9,8.2,8.9c2.9,3,5.7,6.2,8.2,9.6c2.5,3.4,4.6,7.1,6.3,11.1
			c1.7,4,2.5,8.4,2.5,13.2c0,5.1-1.1,9.8-3.2,14.1c-2.1,4.3-5.1,8.1-8.8,11.2c-3.8,3.2-8.2,5.6-13.3,7.4c-5.1,1.8-10.6,2.7-16.5,2.7
			c-5,0-9.4-0.6-13.5-1.9c-4-1.3-7.5-3.1-10.3-5.5c-2.9-2.4-5.1-5.3-6.6-8.6c-1.6-3.3-2.3-7-2.3-11.1c0-3.4,0.6-6.6,1.7-9.6
			c1.1-3,2.6-5.6,4.5-7.8c1.9-2.2,4.2-3.9,6.8-5.2c2.6-1.3,5.4-1.9,8.4-1.9c3.6,0,6.7,0.9,9.2,2.7c2.5,1.8,4,4.3,4.6,7.5
			c-2.7,0-5.2,0.4-7.4,1.1c-2.2,0.8-4,1.8-5.5,3.2c-1.5,1.4-2.7,3-3.5,5c-0.8,1.9-1.2,4.1-1.2,6.6c0,4.5,1.3,8.1,4,10.8
			c2.7,2.7,6.2,4,10.7,4c2.7,0,5.3-0.5,7.6-1.5c2.3-1,4.3-2.3,6-4.1c1.7-1.7,3-3.8,3.9-6.1c1-2.4,1.4-4.9,1.4-7.7
			c0-2.8-0.5-5.5-1.4-8.1c-0.9-2.6-2.2-5.1-3.8-7.6c-1.6-2.5-3.3-4.9-5.3-7.2c-2-2.4-4-4.8-6.1-7.2c-2.1-2.4-4.1-4.8-6.1-7.2
			s-3.7-4.9-5.3-7.5c-1.6-2.5-2.8-5.2-3.8-7.9c-0.9-2.7-1.4-5.6-1.4-8.6c0-4.1,0.9-7.9,2.6-11.3c1.7-3.5,4.2-6.5,7.3-9
			c3.1-2.5,6.8-4.5,11-5.9c4.2-1.4,8.9-2.2,13.9-2.2c4.2,0,8,0.5,11.4,1.6c3.4,1,6.3,2.5,8.7,4.4c2.4,1.9,4.3,4.2,5.6,6.9
			C96.8,98.5,97.4,101.5,97.4,104.8z"/>
		<path fill="#FFFFFF" d="M139.1,201.3l6.4-44.8l-18.8,44.8h-13.7l2-45l-16.7,45h-8l25.3-68.5c-5,1.7-8.8,4.4-11.6,8.2
			c-2.8,3.8-4.2,8.5-4.2,14.3c0,1.3,0.1,2.4,0.2,3.2c0.1,0.8,0.3,1.4,0.5,1.9c0.2,0.5,0.3,0.8,0.5,1.1c0.1,0.2,0.2,0.5,0.2,0.7
			c-1.6,0-3.1-0.2-4.4-0.5c-1.3-0.3-2.4-0.8-3.4-1.6c-0.9-0.7-1.6-1.6-2.1-2.8c-0.5-1.1-0.8-2.6-0.8-4.2c0-2.1,0.4-4.2,1.3-6.4
			c0.9-2.1,2-4.2,3.6-6.2c1.5-2,3.3-3.8,5.3-5.5c2-1.7,4.2-3.2,6.6-4.5s4.8-2.3,7.4-3c2.5-0.7,5.1-1.1,7.6-1.1c2.5,0,5,0.5,7.5,1.4
			l-2.3,52.6l22-52.6H164l-10.5,73.4H139.1z"/>
		<path fill="#FFFFFF" d="M201.3,201.3l7.6-36.2c-2.5-1.2-4.8-2-6.9-2.5c-2.1-0.5-4.2-0.9-6.4-1.1c-1.9,4.1-3.6,8.2-5.2,12.5
			c-1.6,4.3-2.9,8.4-4.1,12.5c-1.2,4-2.1,7.8-2.7,11.4c-0.7,3.5-1,6.6-1,9.2c0,1.6,0.1,2.8,0.4,3.6c0.3,0.8,0.6,1.5,0.9,1.9
			c-1.3,0-2.8-0.1-4.3-0.2c-1.5-0.1-3-0.5-4.3-1.2c-1.3-0.7-2.5-1.7-3.4-3.1c-0.9-1.4-1.3-3.4-1.3-6c0-2.2,0.3-4.9,1-7.9
			c0.7-3.1,1.7-6.4,3-10c1.3-3.6,2.8-7.3,4.6-11.2c1.8-3.9,3.8-7.7,6-11.5c-3.2,0.2-5.7,0.7-7.7,1.4c-2,0.8-3.3,2-4,3.7
			c0.3,0,0.5,0.3,0.9,1c0.3,0.7,0.5,1.4,0.5,2.1c0,1.2-0.5,2.2-1.6,2.8c-1.1,0.7-2.4,1-4,1c-0.9,0-1.7-0.1-2.4-0.4
			c-0.7-0.2-1.4-0.6-1.9-1.1c-0.6-0.5-1-1.1-1.3-1.8c-0.3-0.7-0.5-1.6-0.5-2.6c0-1.7,0.5-3.3,1.5-4.8c1-1.5,2.4-2.8,4.3-3.9
			c1.8-1.1,4-2,6.5-2.6c2.5-0.6,5.2-1,8.1-1c1.4,0,3.1,0.1,5.2,0.3c2.5-4,5.2-7.8,8-11.3c2.8-3.6,5.7-6.7,8.7-9.4c3-2.7,6-4.8,9-6.4
			c3-1.6,6-2.4,8.9-2.4c1.2,0,2.5,0.1,3.9,0.3c1.4,0.2,2.8,0.6,4,1.1l-15.6,73.4H201.3z M215.7,133.5c-1.5,0.8-3,2-4.6,3.5
			c-1.5,1.5-3.1,3.3-4.6,5.4c-1.5,2.1-3,4.4-4.5,6.9c-1.5,2.5-2.9,5.2-4.3,8c2,0.4,4.1,0.9,6.1,1.4c2.1,0.6,4.1,1.2,6,2L215.7,133.5
			z"/>
		<path fill="#FFFFFF" d="M238.3,201.3l13.5-63.5l14.8-1.9l-7.1,33.3c1.7-0.1,3.3-0.6,4.8-1.4c1.5-0.8,2.9-1.8,4.2-3
			c1.3-1.2,2.5-2.6,3.5-4.2c1-1.6,1.9-3.3,2.7-5c0.7-1.8,1.3-3.6,1.7-5.5c0.4-1.9,0.6-3.7,0.6-5.5c0-1.9-0.2-3.6-0.7-5.2
			c-0.5-1.6-1.2-3.1-2.2-4.3s-2.3-2.2-3.8-2.9c-1.6-0.7-3.5-1.1-5.6-1.1c-4.1,0-7.7,0.6-10.9,1.7c-3.2,1.1-5.9,2.7-8.1,4.8
			c-2.2,2.1-3.9,4.6-5.1,7.6s-1.8,6.4-1.8,10.2c0,1.3,0.1,2.3,0.2,3.1c0.1,0.8,0.3,1.4,0.5,1.9s0.3,0.8,0.5,1.1
			c0.1,0.3,0.2,0.5,0.2,0.7c-1.7,0-3.2-0.2-4.6-0.5c-1.3-0.3-2.4-0.9-3.3-1.6c-0.9-0.7-1.6-1.7-2-3c-0.5-1.2-0.7-2.8-0.7-4.6
			c0-2.2,0.5-4.4,1.4-6.5c1-2.1,2.3-4.2,3.9-6.1c1.7-1.9,3.6-3.7,5.9-5.3c2.3-1.6,4.7-3,7.3-4.2c2.6-1.2,5.3-2.1,8.1-2.8
			c2.8-0.7,5.6-1,8.4-1c4.1,0,7.6,0.5,10.6,1.6c3,1.1,5.4,2.5,7.3,4.4c1.9,1.8,3.4,3.9,4.3,6.3c0.9,2.4,1.4,4.8,1.4,7.4
			c0,3.2-0.7,6.4-2,9.5c-1.3,3.2-3.2,6-5.7,8.6c-2.5,2.6-5.5,4.6-9.1,6.2c-3.6,1.6-7.6,2.4-12.1,2.4h-0.5l-6.1,28.4H238.3z"/>
	</g>
</g>
</svg>
